<svg xmlns="http://www.w3.org/2000/svg" viewBox="0 0 4955.64 1155.22"><defs><style>.cls-1{fill:#8ac4e3;}.cls-2{fill:#273f5b;}.cls-3{fill:#fed13b;}</style></defs><title>logo_bc</title><g id="Layer_2" data-name="Layer 2"><g id="Layer_1-2" data-name="Layer 1"><path class="cls-1" d="M5567.76-1733.78v-429.48a37.69,37.69,0,0,1,37.75-37.76h215.75a114.52,114.52,0,0,1,114.62,114.62v51.24c0,32.36-25.62,75.51-62,82.93,36.41,9.44,62,50.57,62,82.93V-1810c0,63.38-51.24,115.29-114.62,115.29h-214.4A39.12,39.12,0,0,1,5567.76-1733.78Zm63.37-247.44h190.13a51.22,51.22,0,0,0,51.25-51.24v-59.33a51.22,51.22,0,0,0-51.25-51.24H5643.94a12.4,12.4,0,0,0-12.81,12.81ZM5872.51-1872a51.23,51.23,0,0,0-51.25-51.24H5631.13v157.77a12.81,12.81,0,0,0,12.81,12.81h177.32c28.32,0,51.25-23.6,51.25-51.92Z" transform="translate(-4406.36 2202.02)"/><path class="cls-1" d="M6012.76-1806.6V-2201h54.61a8.92,8.92,0,0,1,8.76,8.77v391a51.23,51.23,0,0,0,51.25,51.24h152.37A51.22,51.22,0,0,0,6331-1801.2v-391a8.93,8.93,0,0,1,8.77-8.77h54.61v394.42c0,63.38-51.92,114.62-114.62,114.62H6127.38A114.52,114.52,0,0,1,6012.76-1806.6Z" transform="translate(-4406.36 2202.02)"/><path class="cls-1" d="M6476.65-1811.32v-380.93a8.92,8.92,0,0,1,8.76-8.77H6540v395.77c0,29,23.6,52.59,51.91,52.59h210.36a8.93,8.93,0,0,1,8.77,8.77v49.21H6591.93C6528.56-1694.68,6476.65-1747.27,6476.65-1811.32Z" transform="translate(-4406.36 2202.02)"/><path class="cls-1" d="M6865-1811.32v-380.93a8.92,8.92,0,0,1,8.76-8.77h54.62v395.77c0,29,23.59,52.59,51.91,52.59h210.35a8.93,8.93,0,0,1,8.77,8.77v49.21H6980.3C6916.92-1694.68,6865-1747.27,6865-1811.32Z" transform="translate(-4406.36 2202.02)"/><path class="cls-2" d="M7604.13-2199.34v49.06a8.89,8.89,0,0,1-8.74,8.73h-143.8v438.14a8.48,8.48,0,0,1-8.74,8.74h-54.43v-446.88H7237.89v-49a8.91,8.91,0,0,1,8.74-8.74Z" transform="translate(-4406.36 2202.02)"/><path class="cls-2" d="M7769.42-1692a114.14,114.14,0,0,1-114.24-114.23v-281.56A114.14,114.14,0,0,1,7769.42-2202h151.87c62.49,0,114.24,51.07,114.24,114.24v281.56c0,63.16-51.75,114.23-114.24,114.23Zm-51.07-401.17v292.31a51,51,0,0,0,51.07,51.07h151.87a51,51,0,0,0,51.07-51.07v-292.31a51,51,0,0,0-51.07-51.07H7769.42A51,51,0,0,0,7718.35-2093.16Z" transform="translate(-4406.36 2202.02)"/><path class="cls-2" d="M8514.65-1694.67h-60.49c-4.7,0-10.74-4-12.76-8.07L8346-1918.44H8192.77a13.21,13.21,0,0,0-12.77,12.76v202.27a8.91,8.91,0,0,1-8.74,8.74h-54.43V-2190.6a8.9,8.9,0,0,1,8.73-8.74H8180v237.21c6.72-8.06,19.48-14.1,33.6-14.1h141.78a51,51,0,0,0,51.07-51.08V-2190.6c0-4.7,4-8.74,9.42-8.74h54.42v166.66a113.71,113.71,0,0,1-61.15,100.8Z" transform="translate(-4406.36 2202.02)"/><path class="cls-2" d="M8628.87-2090.47v127.67c6.72-8.06,18.82-13.43,32.93-13.43h221.08v49a8.9,8.9,0,0,1-8.74,8.74H8628.87v114.9a51.05,51.05,0,0,0,51.07,51.08h217.73a8.89,8.89,0,0,1,8.73,8.73v49.06H8679.94a114.15,114.15,0,0,1-114.24-114.24V-2085.1a114.15,114.15,0,0,1,114.24-114.24H8906.4v49.06a8.89,8.89,0,0,1-8.73,8.73H8679.94A51.05,51.05,0,0,0,8628.87-2090.47Z" transform="translate(-4406.36 2202.02)"/><path class="cls-2" d="M9308.91-1786.06c-6.71-52.42-6.71-94.75-10.08-142.46V-2190.6a8.91,8.91,0,0,1,8.74-8.74H9362v504.67h-58.46c-4.71,0-10.75-4-12.77-8.07l-229.82-428c-3.36-6.05-11.42-10.76-18.14-10.76h-11.43v438.14a8.9,8.9,0,0,1-8.73,8.74h-54.43V-2190.6a8.9,8.9,0,0,1,8.74-8.74h76.6c21.51,0,47,15.46,57.12,34.28l137.09,258.71Z" transform="translate(-4406.36 2202.02)"/><polygon class="cls-1" points="376.11 98.92 52.18 98.92 52.18 0 0 0 0 98.92 0 151.1 52.18 151.1 376.11 151.1 376.11 394.59 223.93 394.59 223.93 446.77 376.11 446.77 376.11 894.4 271.7 833.92 242.23 876.98 376.09 957.61 376.11 957.58 376.11 957.68 428.29 957.68 428.29 446.77 428.29 394.59 428.29 151.1 428.29 98.92 376.11 98.92"/><polygon class="cls-1" points="676.13 98.92 1000.07 98.92 1000.07 0 1052.25 0 1052.25 98.92 1052.25 151.1 1000.07 151.1 676.13 151.1 676.13 394.59 828.32 394.59 828.32 446.77 676.13 446.77 676.13 894.4 780.55 833.92 810.02 876.98 676.16 957.61 676.13 957.58 676.13 957.68 623.96 957.68 623.96 446.77 623.96 394.59 623.96 151.1 623.96 98.92 676.13 98.92"/><rect class="cls-1" x="500.04" y="98.92" width="52.18" height="940.1"/><path class="cls-3" d="M5567.76-1514.17a96.22,96.22,0,0,1,96.3-96.3H5851v41.35a7.49,7.49,0,0,1-7.36,7.37H5664.06a43,43,0,0,0-43.05,43v241.89a43,43,0,0,0,43.05,43.06h179.58a7.49,7.49,0,0,1,7.36,7.36V-1185H5664.06c-53.25,0-96.3-43.62-96.3-96.31Z" transform="translate(-4406.36 2202.02)"/><path class="cls-3" d="M5994.32-1181.07a82.44,82.44,0,0,1-82.7-82.71v-125.76a82.8,82.8,0,0,1,82.7-82.71h74.78c45.89,0,83.28,37.39,83.28,82.71v125.76c0,45.89-37.39,82.71-83.28,82.71ZM5960.9-1391.8v130.29c0,18.69,14.73,34,33.42,34h74.78a34.09,34.09,0,0,0,34-34V-1391.8c0-18.13-15.29-33.43-34-33.43h-74.78A33.49,33.49,0,0,0,5960.9-1391.8Z" transform="translate(-4406.36 2202.02)"/><path class="cls-3" d="M6564.22-1385.57V-1185h-43.06a6.29,6.29,0,0,1-6.23-6.24v-197.14a33.49,33.49,0,0,0-33.42-33.42h-73.65c5.67,3.4,10.2,9.06,10.2,15.86V-1185H6375a6.29,6.29,0,0,1-6.23-6.24V-1415.6a6.29,6.29,0,0,0-6.24-6.23H6277a6,6,0,0,0-5.66,5.1v225.46a6.29,6.29,0,0,1-6.23,6.24h-43.06v-246.43a36.75,36.75,0,0,1,36.82-36.82h222.64A82.44,82.44,0,0,1,6564.22-1385.57Z" transform="translate(-4406.36 2202.02)"/><path class="cls-3" d="M6974.92-1385.57V-1185h-43.05a6.29,6.29,0,0,1-6.23-6.24v-197.14a33.49,33.49,0,0,0-33.43-33.42h-73.64c5.66,3.4,10.2,9.06,10.2,15.86V-1185h-43.06a6.29,6.29,0,0,1-6.23-6.24V-1415.6a6.28,6.28,0,0,0-6.23-6.23h-85.54a6,6,0,0,0-5.67,5.1v225.46a6.29,6.29,0,0,1-6.23,6.24h-43.05v-246.43a36.75,36.75,0,0,1,36.82-36.82h222.63A82.44,82.44,0,0,1,6974.92-1385.57Z" transform="translate(-4406.36 2202.02)"/><path class="cls-3" d="M7086-1468.85a6.28,6.28,0,0,1,6.23,6.23v197.14a33.13,33.13,0,0,0,33.43,33.43h74.77c18.7,0,34-14.73,34-33.43v-197.14a6.29,6.29,0,0,1,6.24-6.23h43.05v201.11c0,45.88-37.39,82.71-83.28,82.71h-74.77a82.45,82.45,0,0,1-82.71-82.71v-201.11Z" transform="translate(-4406.36 2202.02)"/><path class="cls-3" d="M7593-1385.57V-1185h-43.05a6.29,6.29,0,0,1-6.23-6.24v-197.14a33.49,33.49,0,0,0-33.42-33.42H7407.72a6.28,6.28,0,0,0-6.23,6.23v224.33a6.29,6.29,0,0,1-6.23,6.24H7352.2v-246.43a36.75,36.75,0,0,1,36.83-36.82h121.23A82.44,82.44,0,0,1,7593-1385.57Z" transform="translate(-4406.36 2202.02)"/><path class="cls-3" d="M7713.62-1588.95v46.46h-43.05a6.29,6.29,0,0,1-6.23-6.23v-46.46h43.05A6.28,6.28,0,0,1,7713.62-1588.95Zm0,126.33V-1185h-43.05a6.29,6.29,0,0,1-6.23-6.24v-277h43.05C7710.79-1468.28,7713.62-1466,7713.62-1462.62Z" transform="translate(-4406.36 2202.02)"/><path class="cls-3" d="M7925.49-1225.82V-1185h-57.22a82.81,82.81,0,0,1-82.71-82.71v-337.63h43.06a6.29,6.29,0,0,1,6.23,6.23v141.62a17.65,17.65,0,0,1,16.43-10.2h60v40.79c0,3.4-2.83,5.67-6.23,5.67h-70.24v155.78a33.13,33.13,0,0,0,33.42,33.43h51A6.29,6.29,0,0,1,7925.49-1225.82Z" transform="translate(-4406.36 2202.02)"/><path class="cls-3" d="M8204.77-1468.28c3.4,0,6.23,2.26,6.23,5.66v333.1a82.81,82.81,0,0,1-82.71,82.71H7988.93v-40.79a6.3,6.3,0,0,1,6.23-6.23h133.13c18.13,0,33.43-15.29,33.43-33.42v-75.91a50.49,50.49,0,0,1-39.09,18.13h-64a82.81,82.81,0,0,1-82.71-82.71v-200.54H8019c3.4,0,6.23,2.26,6.23,5.66v197.14a33.49,33.49,0,0,0,33.42,33.43H8134c14.72-2.27,26.62-14.17,27.76-28.89v-207.34Z" transform="translate(-4406.36 2202.02)"/></g></g></svg>